<svg width="581" height="422" viewBox="0 0 581 422" fill="none" xmlns="http://www.w3.org/2000/svg">
    <g clip-path="url(#clip0_3_225)">
        <path d="M99.7706 382.97C99.7706 382.97 100.231 373.324 109.678 374.445L99.7706 382.97Z"
            fill="#E6E6E6" />
        <path
            d="M97.1014 373.79C99.7126 373.79 101.829 371.676 101.829 369.067C101.829 366.458 99.7126 364.343 97.1014 364.343C94.4901 364.343 92.3733 366.458 92.3733 369.067C92.3733 371.676 94.4901 373.79 97.1014 373.79Z"
            fill="#E6E6E6" />
        <path d="M97.6666 377.021H96.332V386.354H97.6666V377.021Z" fill="#E6E6E6" />
        <path d="M442.768 375.637C442.768 375.637 443.228 365.99 452.675 367.112L442.768 375.637Z"
            fill="#E6E6E6" />
        <path
            d="M440.098 366.457C442.71 366.457 444.826 364.342 444.826 361.734C444.826 359.125 442.71 357.01 440.098 357.01C437.487 357.01 435.37 359.125 435.37 361.734C435.37 364.342 437.487 366.457 440.098 366.457Z"
            fill="#E6E6E6" />
        <path d="M440.664 369.688H439.329V379.021H440.664V369.688Z" fill="#E6E6E6" />
        <path
            d="M580.597 412.323C416.284 360.358 267.29 363.127 171.233 374.6C67.1682 387.03 1.13358 412.059 0.478977 412.31L0 411.065C0.656552 410.813 66.8466 385.725 171.075 373.276C232.384 365.962 294.243 364.381 355.846 368.554C432.322 373.725 507.907 387.992 581 411.052L580.597 412.323Z"
            fill="#3F3D56" />
        <path d="M383.377 399.637C383.377 399.637 383.838 389.99 393.285 391.112L383.377 399.637Z"
            fill="#3F3D56" />
        <path
            d="M380.708 390.457C383.319 390.457 385.436 388.342 385.436 385.734C385.436 383.125 383.319 381.01 380.708 381.01C378.097 381.01 375.98 383.125 375.98 385.734C375.98 388.342 378.097 390.457 380.708 390.457Z"
            fill="#4F95FF" />
        <path d="M381.273 393.688H379.939V403.021H381.273V393.688Z" fill="#3F3D56" />
        <path
            d="M163.736 112.884C175.377 106.438 187.201 99.5315 195.426 89.0788C204.016 78.1624 207.683 61.8351 199.722 50.4526C193.035 40.8913 179.719 37.5295 168.376 40.2926C157.033 43.0558 147.537 50.9282 140.162 59.9706C142.575 48.8566 130.842 38.1255 119.502 39.1097C108.161 40.094 99.0616 49.9966 96.0335 60.9594C93.0055 71.9221 94.9757 83.654 98.2249 94.5533C103.696 112.828 112.637 129.881 124.56 144.779C126.388 141.47 128.598 138.386 131.143 135.59C140.097 125.753 152.095 119.329 163.736 112.884Z"
            fill="#C8EBFF" />
        <path
            d="M123.498 145.311C108.265 128.532 97.1076 108.471 90.8931 86.685C87.6992 75.3683 85.8282 62.5016 90.6147 51.3365C94.3168 42.7011 102.207 34.8879 111.988 34.1645C122.31 33.4012 133.769 42.9505 131.558 53.8699C131.393 54.6854 132.468 55.5457 133.105 54.7694C141.367 44.6945 152.724 35.4142 166.258 34.5044C178.313 33.6941 190.976 39.7122 194.487 51.9461C198.144 64.6886 191.834 78.1694 182.997 87.1799C173.194 97.1753 160.434 103.41 148.389 110.218C136.539 116.916 124.486 124.65 117.197 136.49C113.734 141.966 111.594 148.172 110.946 154.617C110.374 161.27 112.04 167.56 115.263 173.361C118.687 179.522 122.921 185.139 126.013 191.501C129.054 197.789 131.367 204.403 132.908 211.215C136.019 224.793 136.04 238.895 132.968 252.482C127.286 277.244 110.708 299.037 88.6439 311.575C85.9779 313.086 83.2373 314.463 80.4326 315.699C79.3456 316.179 80.2862 317.773 81.3666 317.296C93.0539 312.055 103.56 304.509 112.255 295.11C120.95 285.711 127.653 274.653 131.962 262.601C141.297 236.128 137.718 205.625 122.785 181.893C118.877 175.682 114.363 169.659 113.076 162.259C111.896 155.479 113.349 148.405 116.215 142.219C122.352 128.972 134.517 120.36 146.805 113.253C159.089 106.148 172.212 99.9944 182.623 90.1391C191.891 81.3658 198.728 68.8476 197.123 55.7333C196.461 49.7403 193.668 44.1836 189.253 40.073C184.801 36.1623 179.279 33.674 173.398 32.929C160.279 31.0812 147.981 37.2997 138.631 46.0899C136.196 48.3974 133.913 50.8599 131.796 53.4621L133.343 54.3615C135.339 44.5054 127.496 35.4505 118.313 32.9577C108.327 30.2468 98.4273 36.0792 92.6729 43.9861C85.485 53.8626 84.8971 66.5284 86.9982 78.1736C89.1778 90.2539 93.6899 102.081 99.1706 113.033C105.281 125.221 113.025 136.52 122.189 146.619C122.99 147.503 124.296 146.192 123.498 145.311Z"
            fill="#3F3D56" />
        <path d="M124.345 405.41L117.74 407.283L91.7891 324.722L110.832 321.442L124.345 405.41Z"
            fill="#9F616A" />
        <path d="M46.8244 405.885L40.2928 404.486L57.1891 319.881L75.5621 325.861L46.8244 405.885Z"
            fill="#9F616A" />
        <path
            d="M116.386 421.448C118.194 422.273 119.709 417.162 121.235 418.66C125.502 422.849 135.738 421.91 135.738 421.91C136.082 421.8 136.399 421.621 136.672 421.384C136.944 421.147 137.166 420.858 137.323 420.533C137.48 420.209 137.57 419.856 137.586 419.495C137.603 419.135 137.546 418.775 137.419 418.437C137.268 418.033 137.02 417.672 136.698 417.385C136.375 417.097 135.988 416.892 135.569 416.788L131.031 415.654L123.905 403.136L116.14 402.154L115.944 402.474C114.443 404.891 113.475 407.601 113.105 410.421C112.735 413.242 112.971 416.109 113.798 418.83C114.444 420.898 115.323 420.964 116.386 421.448Z"
            fill="#2F2E41" />
        <path
            d="M37.3372 417.806C38.9644 418.947 41.3886 414.199 42.6145 415.95C46.0433 420.848 56.2791 421.793 56.2791 421.793C56.6372 421.748 56.9823 421.63 57.2934 421.447C57.6046 421.264 57.8753 421.02 58.0892 420.729C58.3032 420.439 58.4559 420.108 58.538 419.757C58.6202 419.406 58.6302 419.041 58.5673 418.686C58.4921 418.261 58.3147 417.861 58.0503 417.52C57.786 417.178 57.4426 416.906 57.0496 416.727L52.7954 414.784L48.0801 401.175L40.6251 398.792L40.3737 399.071C38.4556 401.173 37.0084 403.66 36.1287 406.366C35.249 409.071 34.957 411.933 35.2722 414.76C35.5289 416.91 36.3811 417.136 37.3372 417.806Z"
            fill="#2F2E41" />
        <path
            d="M102.336 261.833C105.814 267.176 109.185 272.572 110.677 278.714C114.283 293.747 116.858 309.008 118.384 324.392C106.301 331.318 95.8172 335.294 85.5764 335.979C85.1002 336.011 84.6248 336.033 84.1496 336.051L80.4163 314.995L77.4383 335.819C75.9637 335.662 74.4868 335.439 73.0029 335.14C66.5831 333.854 60.0468 331.225 53.0625 327.188C50.5587 317.238 49.5074 306.979 49.9413 296.729C50.5151 283.021 53.6177 271.284 56.6223 261.86L102.336 261.833Z"
            fill="#2F2E41" />
        <path
            d="M76.6865 199.752L60.2705 194.176C66.2092 188.368 68.6347 181.991 66.1803 174.824L84.5662 178.104C80.2035 186.504 74.4914 191.562 76.6865 199.752Z"
            fill="#9F616A" />
        <path
            d="M102.336 261.833C87.4032 273.7 72.2001 275.068 56.6223 261.86C62.9021 242.162 50.0906 223.639 51.9568 209.656C53.1211 200.933 56.7529 190.127 65.1975 187.615L74.2672 190.383C77.4133 191.342 80.2601 193.092 82.5352 195.466C84.8103 197.839 86.4374 200.756 87.2606 203.937L88.3337 208.109C93.5264 213.628 95.2573 220.88 93.909 229.685C95.0474 232.183 94.5248 235.334 94.0023 238.489C93.5077 241.491 93.0132 244.497 93.9463 246.945C95.9543 252.205 99.1889 256.997 102.336 261.833Z"
            fill="#E6E6E6" />
        <path
            d="M79.9697 185.648C88.1294 185.648 94.7441 179.04 94.7441 170.888C94.7441 162.736 88.1294 156.128 79.9697 156.128C71.81 156.128 65.1953 162.736 65.1953 170.888C65.1953 179.04 71.81 185.648 79.9697 185.648Z"
            fill="#9F616A" />
        <path
            d="M130.703 254.929L120.353 251.545L121.108 243.247L132.472 242.995C133.369 242.975 134.259 243.152 135.079 243.514C135.9 243.875 136.631 244.412 137.221 245.086C137.811 245.761 138.245 246.557 138.494 247.417C138.742 248.278 138.799 249.183 138.659 250.068C138.52 250.943 138.194 251.777 137.701 252.514C137.208 253.25 136.561 253.871 135.804 254.334C135.048 254.796 134.2 255.088 133.319 255.191C132.438 255.294 131.546 255.205 130.703 254.929Z"
            fill="#9F616A" />
        <path opacity="0.2"
            d="M110.677 278.714C106.399 276.71 96.6617 271.657 82.5952 261.417C63.224 247.313 68.1508 212.873 68.1508 212.873L94.0023 238.489C93.5078 241.491 93.0132 244.497 93.9463 246.945C98.1732 258.019 107.836 267.015 110.677 278.714Z"
            fill="black" />
        <path
            d="M122.323 254.201C108.307 257.303 96.8406 259.163 87.5211 252.561C72.7409 235.388 64.3408 218.148 67.4849 200.786C67.7767 199.222 68.506 197.773 69.5884 196.606C70.6709 195.439 72.0621 194.603 73.6008 194.194C75.6202 193.649 77.7701 193.869 79.6369 194.812C81.5037 195.755 82.9554 197.354 83.7128 199.302L94.8794 236.69L123.805 242.284L122.323 254.201Z"
            fill="#2F2E41" />
        <path
            d="M100.356 291.264C98.7116 291.261 97.1166 290.7 95.8338 289.671C94.5509 288.643 93.6565 287.209 93.2977 285.605L92.4377 281.737L106.557 278.604L107.417 282.471C107.832 284.342 107.488 286.301 106.458 287.917C105.428 289.534 103.798 290.676 101.925 291.091C101.41 291.206 100.884 291.263 100.356 291.264ZM93.5508 282.446L94.2085 285.403C94.5708 287.032 95.5661 288.451 96.9754 289.347C98.3846 290.243 100.092 290.543 101.723 290.181C103.354 289.819 104.774 288.825 105.671 287.417C106.567 286.009 106.868 284.303 106.505 282.674L105.848 279.716L93.5508 282.446Z"
            fill="#3F3D56" />
        <path
            d="M94.6904 164.719C94.6904 164.719 97.0622 146.278 77.7099 152.325C77.7099 152.325 63.8884 149.792 59.3558 167.064L54.7662 185.169L57.003 183.953L58.0457 186.23L61.6703 187.147L63.2213 184.071L63.9716 187.806L93.6586 190.763C93.6586 190.763 80.3624 182.907 80.1516 168.828L82.6842 171.501L94.6904 164.719Z"
            fill="#2F2E41" />
        <path d="M193.953 142.177H227L223.08 176.873L193.953 176.151V142.177Z" fill="#2F2E41" />
        <path
            d="M184.385 220.42C174.462 223.96 180.841 259.365 180.841 259.365L189.346 300.433L197.143 356.372L209.9 354.247L205.648 310.346L203.522 256.532L221.949 303.266L235.416 354.956L248.174 352.123L245.339 333.713C244.63 320.968 235.416 294.769 235.416 294.769L224.785 221.128L184.385 220.42Z"
            fill="#2F2E41" />
        <path
            d="M245.279 348.213C245.279 348.213 250.068 366.642 249.946 368.763L249.942 368.827C249.87 369.789 249.492 370.703 248.862 371.435C248.232 372.167 247.385 372.678 246.443 372.894C244.408 373.375 241.72 374.026 240.279 374.434C238.916 374.82 232.248 377.007 227.377 375.307C222.506 373.607 237.688 364.838 237.688 364.838L236.269 347.604L245.279 348.213Z"
            fill="#2F2E41" />
        <path
            d="M208.314 353.232C208.314 353.232 209.542 371.618 209.016 373.676C208.49 375.735 207.291 374.698 207.291 374.698C207.291 374.698 200.81 374.917 198.206 375.136C196.793 375.255 189.83 376.128 185.374 373.53C180.917 370.932 198.206 364.515 198.206 364.515L199.401 348.035L208.314 353.232Z"
            fill="#2F2E41" />
        <path
            d="M209.9 161.649C217.338 161.649 223.367 155.626 223.367 148.196C223.367 140.766 217.338 134.742 209.9 134.742C202.463 134.742 196.434 140.766 196.434 148.196C196.434 155.626 202.463 161.649 209.9 161.649Z"
            fill="#FFB8B8" />
        <path d="M205.648 157.401L208.483 177.227L220.532 171.563L217.696 155.985L205.648 157.401Z"
            fill="#FFB8B8" />
        <path
            d="M209.192 169.438L206.82 165.6L204.23 168.73L192.89 172.271L190.055 189.264C189.346 193.513 191.473 201.302 191.473 201.302C191.473 201.302 183.676 216.88 184.385 222.544C185.094 228.209 221.241 226.085 221.241 226.085L231.872 169.438L222.658 166.606L219.823 163.065L211.318 167.314L209.9 172.979L209.192 169.438Z"
            fill="#E6E6E6" />
        <path
            d="M225.584 137.992C225.584 137.443 225.476 136.899 225.265 136.391C225.055 135.883 224.746 135.422 224.357 135.033C223.969 134.645 223.507 134.337 222.999 134.126C222.49 133.916 221.946 133.808 221.396 133.808H201.201C199.795 133.808 198.446 134.366 197.452 135.359C196.457 136.352 195.899 137.7 195.899 139.105V147.237C205.574 142.342 215.508 143.202 225.584 147.237V137.992Z"
            fill="#2F2E41" />
        <path
            d="M179.403 271.493C174.52 268.636 169.564 265.581 166.173 261.054C162.632 256.328 161.238 249.351 164.737 244.592C167.676 240.596 173.371 239.301 178.164 240.59C182.958 241.879 186.915 245.321 189.958 249.239C189.045 244.491 194.141 240.047 198.951 240.58C203.762 241.113 207.529 245.414 208.706 250.105C209.882 254.795 208.926 259.762 207.435 264.362C204.925 272.075 200.952 279.233 195.733 285.446C194.989 284.021 194.081 282.688 193.027 281.473C189.321 277.201 184.286 274.35 179.403 271.493Z"
            fill="#F0E4FF" />
        <path
            d="M210.609 224.669L198.56 236.706C198.56 236.706 187.929 250.868 192.89 253.7C197.851 256.532 204.23 240.246 204.23 240.246L219.114 229.625L210.609 224.669Z"
            fill="#FFB8B8" />
        <path
            d="M182.259 225.377L181.55 232.457C181.55 232.457 187.22 243.787 182.967 247.327C178.715 250.868 175.171 233.166 175.171 233.166L176.588 224.669L182.259 225.377Z"
            fill="#FFB8B8" />
        <path
            d="M224.784 188.556L221.241 209.091L207.065 225.377L220.532 231.749C220.532 231.749 230.455 216.88 233.998 211.923C237.542 206.966 238.96 181.476 237.542 175.811C236.125 170.146 231.872 169.438 231.872 169.438L229.746 170.854L224.784 188.556Z"
            fill="#E6E6E6" />
        <path
            d="M194.308 197.761L188.637 212.631L182.967 227.501L173.045 226.793C173.045 226.793 180.132 212.631 179.424 210.507C178.715 208.383 186.511 183.6 187.929 178.643C189.346 173.687 192.89 172.271 192.89 172.271L198.56 173.687L194.308 197.761Z"
            fill="#E6E6E6" />
        <path
            d="M227.767 169.309C224.591 170.849 220.901 170.934 217.393 170.548C216.329 170.534 215.279 170.312 214.301 169.894C217.097 168.275 218.608 165.109 219.5 162.006C219.963 160.391 220.302 158.744 220.516 157.078C220.696 155.643 221.001 154.225 221.426 152.842C221.96 151.124 222.116 149.31 221.883 147.526C221.651 145.741 221.035 144.028 220.079 142.503C219.123 140.978 217.848 139.677 216.342 138.69C214.836 137.703 213.135 137.052 211.354 136.782C209.573 136.511 207.755 136.629 206.024 137.125C204.292 137.622 202.689 138.486 201.323 139.659C199.956 140.832 198.86 142.285 198.108 143.92C197.356 145.556 196.966 147.334 196.965 149.133C197.066 151.584 197.838 153.96 199.198 156.002C200.172 157.487 201.476 158.729 203.008 159.631C204.539 160.533 206.258 161.071 208.031 161.203C208.523 161.219 208.991 161.42 209.341 161.766C210.52 162.948 208.461 165.327 208.736 166.973C209.082 169.055 209.374 171.389 208.139 173.101C207.452 173.944 206.578 174.616 205.587 175.065C201.748 177.085 197.482 178.159 193.143 178.196C195.632 176.095 197.306 173.192 197.877 169.988C198.423 166.845 197.827 163.611 196.196 160.869C196.407 164.039 196.003 167.22 195.006 170.236C194.483 172.126 193.455 173.839 192.031 175.189C190.546 176.453 188.614 177.075 186.861 176.217C188.679 175.263 190.101 173.699 190.877 171.8C191.641 169.91 192.016 167.886 191.982 165.848C192.111 164.03 192.035 162.202 191.756 160.4C190.894 163.729 188.915 166.663 186.15 168.71C185.414 169.306 184.548 169.718 183.622 169.913C183.178 170.002 182.718 169.97 182.291 169.82C181.864 169.67 181.486 169.407 181.195 169.06C182.618 168.516 183.86 167.586 184.781 166.374C185.702 165.162 186.265 163.717 186.408 162.202C186.535 160.599 186.188 158.908 186.82 157.429C187.476 155.892 189.019 154.969 190.355 153.963C191.691 152.958 193.306 151.377 192.969 149.74C191.934 144.705 192.757 139.005 196.331 135.306C197.006 134.628 197.731 134.001 198.499 133.431C199.791 132.369 201.237 131.509 202.787 130.879C204.352 130.251 206.09 130.195 207.691 130.723C207.825 129.866 208.054 129.9 208.753 129.62C209.662 129.261 210.632 129.083 211.609 129.096C218.371 129.158 224.79 133.135 228.483 138.789C228.967 139.472 229.334 140.231 229.57 141.035C229.713 141.682 229.769 142.345 229.738 143.007C229.676 146.244 228.89 149.446 228.985 152.681C229.079 155.917 230.4 159.414 233.24 160.972C233.467 164.491 230.943 167.77 227.767 169.309Z"
            fill="#2F2E41" />
        <path
            d="M222.449 152.273C223.269 152.273 223.934 151.21 223.934 149.899C223.934 148.588 223.269 147.525 222.449 147.525C221.628 147.525 220.963 148.588 220.963 149.899C220.963 151.21 221.628 152.273 222.449 152.273Z"
            fill="#FFB8B8" />
        <path d="M295.96 382.304C295.96 382.304 296.42 372.657 305.867 373.778L295.96 382.304Z"
            fill="#3F3D56" />
        <path
            d="M293.29 373.124C295.902 373.124 298.018 371.009 298.018 368.4C298.018 365.792 295.902 363.677 293.29 363.677C290.679 363.677 288.562 365.792 288.562 368.4C288.562 371.009 290.679 373.124 293.29 373.124Z"
            fill="#4F95FF" />
        <path d="M293.856 376.354H292.521V385.688H293.856V376.354Z" fill="#3F3D56" />
        <path d="M211.211 397.637C211.211 397.637 211.672 387.99 221.119 389.112L211.211 397.637Z"
            fill="#3F3D56" />
        <path
            d="M208.542 388.457C211.153 388.457 213.27 386.342 213.27 383.734C213.27 381.125 211.153 379.01 208.542 379.01C205.931 379.01 203.814 381.125 203.814 383.734C203.814 386.342 205.931 388.457 208.542 388.457Z"
            fill="#4F95FF" />
        <path d="M209.107 391.688H207.773V401.021H209.107V391.688Z" fill="#3F3D56" />
        <path
            d="M353.275 345.662C353.275 345.662 350.15 356.418 348.066 359.193C345.982 361.969 344.246 366.479 345.288 367.173C346.33 367.867 348.413 376.194 345.635 376.541C342.857 376.888 336.606 367.52 336.258 364.398C335.911 361.275 334.522 350.172 334.522 350.172C334.522 350.172 332.091 340.458 335.911 339.764C339.731 339.07 345.635 338.723 345.635 338.723L353.275 345.662Z"
            fill="#2F2E41" />
        <path
            d="M367.861 357.112C367.861 357.112 372.376 368.908 373.418 369.602C374.46 370.296 378.28 376.541 370.64 376.541C362.999 376.541 358.832 374.459 358.832 374.459L356.401 371.684C356.401 371.684 356.401 364.398 357.095 363.357C357.79 362.316 357.095 357.112 357.095 357.112H367.861Z"
            fill="#2F2E41" />
        <path
            d="M398.77 249.209C398.77 249.209 404.327 286.68 399.465 298.823C394.603 310.967 389.741 314.436 389.741 314.436L352.928 348.785C352.928 348.785 341.468 342.886 342.509 339.07C342.509 339.07 344.94 337.682 345.288 336.641C345.635 335.6 350.15 335.254 350.15 335.254C350.15 335.254 352.233 332.825 352.233 331.437C352.233 330.049 370.292 305.416 376.196 303.681C376.196 303.681 379.322 299.864 378.975 299.17C378.627 298.476 380.017 296.048 380.017 296.048L376.544 282.517L354.664 279.047C354.664 279.047 345.635 247.127 353.275 244.699C360.916 242.27 398.77 249.209 398.77 249.209Z"
            fill="#2F2E41" />
        <path
            d="M355.359 273.496L354.664 279.047C354.664 279.047 354.665 293.619 355.359 295.007C356.054 296.395 356.401 298.476 355.359 299.864C354.317 301.252 352.581 304.722 353.275 306.109C353.97 307.497 351.886 346.703 354.664 349.479C357.443 352.254 356.401 355.724 356.054 356.071C355.706 356.418 356.401 357.805 356.401 357.805C356.401 357.805 370.64 360.234 369.598 357.805C368.556 355.377 368.556 353.989 367.861 353.295C367.167 352.601 367.861 351.56 367.861 351.56C367.861 351.56 366.82 340.458 367.861 339.764C368.903 339.07 372.029 305.762 372.029 305.415C372.029 305.069 373.071 304.375 373.071 302.987C373.071 301.599 373.071 297.089 374.807 296.395C376.544 295.701 376.196 278.7 376.196 278.7L355.359 273.496Z"
            fill="#2F2E41" />
        <path
            d="M380.016 149.634C380.016 149.634 378.627 160.042 374.46 162.124C370.292 164.206 367.514 165.246 367.514 165.246L370.987 177.39L372.376 187.798H388.351L397.034 180.859L394.255 169.41L392.866 167.328C392.866 167.328 391.13 159.695 392.519 157.266C393.908 154.838 380.016 149.634 380.016 149.634Z"
            fill="#9F616A" />
        <path
            d="M386.962 174.961L384.531 179.472C384.531 179.472 382.795 173.226 380.364 172.185C377.933 171.145 372.029 169.41 372.029 168.022C372.029 166.634 372.376 163.165 370.987 163.165C369.598 163.165 356.054 167.328 353.97 168.716C351.886 170.104 351.539 171.492 351.539 171.492L355.359 211.391C355.359 211.391 349.802 230.127 351.539 237.413C353.275 244.699 354.664 245.74 358.832 246.78C362.999 247.821 360.568 244.352 372.723 247.821C384.879 251.291 392.519 250.25 395.297 250.25C397.164 250.316 398.973 250.918 400.506 251.985C401.201 252.332 400.854 250.25 398.423 247.127C395.992 244.005 397.034 238.8 397.034 238.8C397.034 238.8 399.812 229.78 398.075 226.31C396.339 222.841 393.908 218.33 395.992 216.942C398.075 215.555 400.854 205.146 400.854 205.146L408.494 178.084L392.866 167.328C392.866 167.328 393.561 172.185 391.13 173.226C388.699 174.267 386.962 174.961 386.962 174.961Z"
            fill="#E6E6E6" />
        <path
            d="M406.41 177.737H408.494C408.494 177.737 411.967 183.635 411.967 187.798C411.967 191.962 410.231 215.555 410.231 215.555L400.159 225.963L397.728 217.983L397.034 200.289L406.41 177.737Z"
            fill="#E6E6E6" />
        <path
            d="M400.854 214.514C400.854 214.514 412.314 211.391 411.967 216.249C411.62 221.106 409.883 227.004 404.327 228.392C398.77 229.78 397.034 222.147 397.034 222.147C397.034 222.147 396.339 215.208 400.854 214.514Z"
            fill="#E6E6E6" />
        <path
            d="M357.79 230.474C357.79 230.474 358.485 246.433 362.652 248.168L352.581 250.597C352.581 250.597 347.719 233.943 348.413 233.249C349.108 232.555 357.79 230.474 357.79 230.474Z"
            fill="#9F616A" />
        <path opacity="0.1"
            d="M355.185 176.175L352.928 172.879C352.928 172.879 344.593 185.717 345.288 194.391C345.982 203.064 346.677 203.411 346.677 204.799C346.677 206.187 348.413 206.187 346.677 207.922C344.94 209.656 342.509 212.085 343.899 213.473C345.288 214.861 346.33 214.861 345.982 216.595C345.76 217.856 345.644 219.132 345.635 220.412C345.635 220.412 348.587 226.137 349.629 226.137C350.671 226.137 360.568 235.331 360.568 234.29C360.568 233.249 359.527 225.963 359.527 224.922C359.527 223.882 359.179 220.412 358.485 219.371C357.79 218.33 357.79 218.677 358.485 217.636C359.179 216.595 359.179 217.636 359.179 216.595C359.179 215.555 358.832 214.167 359.874 213.82C360.916 213.473 361.958 213.82 361.263 212.085C360.568 210.35 361.263 208.963 361.61 208.963C361.958 208.963 363.694 208.616 362.652 207.575C361.61 206.534 364.736 186.411 364.736 186.411C364.736 186.411 364.215 181.38 355.185 176.175Z"
            fill="black" />
        <path
            d="M357.095 168.716L351.192 171.492C351.192 171.492 342.857 184.329 343.551 193.003C344.246 201.676 344.94 202.023 344.94 203.411C344.94 204.799 346.677 204.799 344.94 206.534C343.204 208.269 340.773 210.697 342.162 212.085C343.551 213.473 344.593 213.473 344.246 215.208C344.024 216.468 343.908 217.745 343.899 219.024C343.899 219.024 347.024 235.678 348.066 235.678C349.108 235.678 358.832 233.943 358.832 232.902C358.832 231.861 357.79 224.575 357.79 223.535C357.79 222.494 357.443 219.024 356.748 217.983C356.054 216.942 356.054 217.289 356.748 216.249C357.443 215.208 357.443 216.249 357.443 215.208C357.443 214.167 357.095 212.779 358.137 212.432C359.179 212.085 360.221 212.432 359.527 210.697C358.832 208.963 359.527 207.575 359.874 207.575C360.221 207.575 361.958 207.228 360.916 206.187C359.874 205.146 362.999 185.023 362.999 185.023C362.999 185.023 366.125 173.92 357.095 168.716Z"
            fill="#E6E6E6" />
        <path
            d="M389.741 159.348C396.837 159.348 402.59 153.601 402.59 146.511C402.59 139.421 396.837 133.674 389.741 133.674C382.644 133.674 376.891 139.421 376.891 146.511C376.891 153.601 382.644 159.348 389.741 159.348Z"
            fill="#9F616A" />
        <path
            d="M394.462 139.118C396.066 139.67 397.72 140.061 399.402 140.283C400.668 140.48 402.148 140.581 403.038 139.66C403.911 138.757 403.77 137.249 403.174 136.143C402.579 135.037 401.625 134.17 400.91 133.138C399.784 131.514 399.12 129.361 397.321 128.543C396.575 128.258 395.784 128.11 394.985 128.107C390.316 127.81 385.456 127.542 381.132 129.327C379.507 129.945 378.068 130.969 376.95 132.299C376.219 133.279 375.654 134.373 375.279 135.537C374.124 138.962 373.867 142.625 374.533 146.178C375.199 149.73 376.766 153.052 379.084 155.827C380.66 154.408 379.975 151.131 381.969 150.408C382.623 150.171 383.362 150.336 384.033 150.148C386.138 149.558 386.033 146.307 387.786 145.001C388.169 144.795 388.508 144.516 388.784 144.181C388.938 143.859 389.005 143.503 388.978 143.147C388.991 141.929 388.418 138.835 389.581 138C390.765 137.151 393.325 138.707 394.462 139.118Z"
            fill="#2F2E41" />
        <path
            d="M386.045 80.3864C374.56 73.6666 362.904 66.4813 354.929 55.8363C346.601 44.7193 343.323 28.3096 351.552 17.1192C358.465 7.71917 371.857 4.67423 383.132 7.70575C394.406 10.7373 403.712 18.8328 410.87 28.0475C408.722 16.8795 420.706 6.42972 432.02 7.68276C443.334 8.9358 452.196 19.0516 454.962 30.083C457.729 41.1145 455.48 52.7964 451.973 63.6155C446.069 81.7557 436.725 98.591 424.451 113.203C422.702 109.851 420.567 106.715 418.088 103.86C409.371 93.8125 397.529 87.1061 386.045 80.3864Z"
            fill="#F0E4FF" />
        <path
            d="M425.501 113.76C441.128 97.3463 452.759 77.5553 459.49 55.9234C462.952 44.6856 465.128 31.8669 460.608 20.5915C457.113 11.8706 449.41 3.87244 439.649 2.91725C429.348 1.90925 417.665 11.184 419.616 22.1528C419.762 22.972 418.667 23.8065 418.049 23.0153C410.028 12.7472 398.895 3.20004 385.386 1.96945C373.354 0.873375 360.552 6.58936 356.751 18.7365C352.792 31.3886 358.779 45.0153 367.4 54.2329C376.962 64.4581 389.571 70.9941 401.45 78.0854C413.138 85.0626 425.004 93.0809 432.009 105.09C435.341 110.647 437.333 116.902 437.828 123.361C438.242 130.025 436.427 136.273 433.066 141.996C429.497 148.075 425.13 153.59 421.888 159.877C418.698 166.091 416.228 172.648 414.527 179.421C411.094 192.921 410.738 207.019 413.486 220.675C418.577 245.565 434.633 267.746 456.392 280.803C459.022 282.378 461.729 283.819 464.503 285.121C465.579 285.627 464.6 287.198 463.532 286.695C451.972 281.179 441.648 273.385 433.179 263.783C424.711 254.18 418.272 242.966 414.251 230.815C405.548 204.128 409.851 173.719 425.343 150.348C429.398 144.231 434.054 138.317 435.517 130.95C436.857 124.199 435.573 117.093 432.855 110.841C427.034 97.4519 415.078 88.5543 402.962 81.1577C390.85 73.7629 377.877 67.2997 367.703 57.2001C358.647 48.2094 352.109 35.5325 354.025 22.46C354.83 16.4844 357.754 10.9955 362.266 6.99089C366.809 3.18691 372.389 0.830264 378.285 0.225024C391.445 -1.31097 403.591 5.1975 412.731 14.2071C415.11 16.5717 417.334 19.0877 419.388 21.7393L417.821 22.6018C416.06 12.7011 424.115 3.83483 433.355 1.56063C443.403 -0.912543 453.161 5.15308 458.726 13.1943C465.677 23.2385 465.963 35.9147 463.586 47.5068C461.12 59.5319 456.328 71.2485 450.588 82.0675C444.19 94.1068 436.179 105.219 426.778 115.098C425.956 115.962 424.682 114.621 425.501 113.76Z"
            fill="#3F3D56" />
        <path
            d="M409.793 216.992C410.116 217.077 410.459 217.049 410.764 216.911C411.069 216.774 411.317 216.536 411.467 216.237C413.063 213.049 422.45 205.879 413.356 203.411C407.279 201.762 406.325 210.39 404.973 213.812C404.887 214.029 404.848 214.262 404.859 214.496C404.869 214.729 404.93 214.958 405.035 215.166C405.141 215.375 405.29 215.559 405.472 215.706C405.654 215.853 405.865 215.959 406.091 216.019L409.793 216.992Z"
            fill="#9F616A" />
        <path
            d="M437.166 281.904C437.821 282.469 438.595 282.88 439.43 283.107C440.265 283.335 441.141 283.373 441.993 283.218C442.844 283.064 443.651 282.721 444.352 282.214C445.054 281.708 445.634 281.051 446.048 280.292L452.167 269.092L447.54 265.26L437.452 272.895C436.763 273.417 436.199 274.086 435.802 274.854C435.405 275.621 435.184 276.468 435.157 277.331C435.13 278.195 435.296 279.054 435.643 279.845C435.991 280.636 436.511 281.339 437.166 281.904Z"
            fill="#FFB9B9" />
        <path
            d="M444.33 266.287L451.476 272.044L490.431 241.877L488.126 189.373C485.935 191.124 484.113 193.292 482.766 195.75C481.419 198.209 480.574 200.91 480.278 203.698L473.604 233.357L444.33 266.287Z"
            fill="#69A5FF" />
        <path d="M519.474 388.336H529.156L530.078 303.593H510.715L519.474 388.336Z" fill="#FFB9B9" />
        <path d="M495.502 392.942H505.183L506.105 302.672L486.743 301.75L495.502 392.942Z"
            fill="#FFB9B9" />
        <path
            d="M483.055 310.962L507.027 311.883L507.949 306.817L509.332 313.725L531.461 312.804C531.457 290.404 530.979 265.653 533.766 257.076L482.594 262.142C478.564 279.497 478.067 295.939 483.055 310.962Z"
            fill="#2F2E41" />
        <path
            d="M525.049 410.444C530.224 410.444 534.281 412.451 533.81 407.302L532.47 389.894C532.444 389.157 532.204 388.443 531.779 387.839C531.355 387.236 530.763 386.768 530.078 386.494C526.39 382.175 522.701 381.715 519.013 385.113C517.814 386.61 517.115 388.445 517.014 390.36L516.264 407.65C516.004 412.675 520.013 410.444 525.049 410.444Z"
            fill="#2F2E41" />
        <path
            d="M477.792 410.688L502.397 410.037C503.415 409.896 504.346 409.383 505.01 408.598C505.673 407.813 506.023 406.811 505.992 405.784L506.455 393.772C506.485 393.18 506.282 392.6 505.89 392.155C505.498 391.71 504.948 391.436 504.357 391.391L500.573 391.1C500.124 386.987 497.618 385.989 494.119 386.494L483.055 398.93L475.764 400.969C474.595 401.296 473.586 402.038 472.926 403.056C472.266 404.075 472.002 405.298 472.182 406.498C472.376 407.793 473.075 408.96 474.125 409.745C475.175 410.529 476.493 410.868 477.792 410.688Z"
            fill="#2F2E41" />
        <path
            d="M506.105 171.872C513.998 171.872 520.396 165.479 520.396 157.594C520.396 149.709 513.998 143.317 506.105 143.317C498.212 143.317 491.814 149.709 491.814 157.594C491.814 165.479 498.212 171.872 506.105 171.872Z"
            fill="#FFB9B9" />
        <path
            d="M498.729 182.925L523.163 176.017C517.698 173.893 515.589 170.189 516.708 164.963H500.573C502.647 172.835 502.656 179.259 498.729 182.925Z"
            fill="#FFB9B9" />
        <path
            d="M481.211 268.129C495 269.89 507.704 264.556 519.705 260.53C525.123 258.713 530.58 260.61 535.61 257.536C533.435 236.136 535.546 212.029 540.166 186.34C540.43 184.885 540.155 183.385 539.393 182.118C538.63 180.852 537.433 179.905 536.023 179.456L520.857 174.635L507.488 179.241L500.573 180.622L486.334 190.234C485.503 190.795 484.851 191.584 484.458 192.505C484.065 193.427 483.947 194.443 484.117 195.43C488.395 219.59 487.404 244.387 481.211 268.129Z"
            fill="#7DB1FF" />
        <path d="M519.935 260.76L524.546 272.735L529.156 265.826L523.163 259.839L519.935 260.76Z"
            fill="#FFB9B9" />
        <path
            d="M492.391 152.503C497.948 148.941 503.489 147.767 509.017 148.769C510.698 149.083 512.297 149.738 513.714 150.694C515.131 151.651 516.337 152.888 517.256 154.329C518.175 155.77 518.788 157.384 519.056 159.072C519.325 160.759 519.244 162.484 518.818 164.139L518.783 164.272L519.609 162.721C521.8 158.608 522.548 153.88 521.732 149.293C521.106 145.77 519.223 142.593 516.431 140.353C513.638 138.112 510.128 136.959 506.549 137.108L503.44 137.238C499.862 137.387 496.458 138.817 493.849 141.268C491.241 143.718 489.603 147.025 489.234 150.583C489.195 150.968 489.266 151.355 489.438 151.701C489.61 152.047 489.877 152.337 490.207 152.538C490.537 152.738 490.918 152.842 491.304 152.836C491.691 152.83 492.068 152.714 492.391 152.503Z"
            fill="#2F2E41" />
        <path
            d="M522.241 259.839L528.695 268.129L551.284 234.508L549.33 200.351C549.081 196.001 547.735 191.784 545.417 188.093C543.099 184.402 539.884 181.357 536.071 179.241L536.532 231.745L522.241 259.839Z"
            fill="#69A5FF" />
    </g>
    <defs>
        <clipPath id="clip0_3_225">
            <rect width="581" height="422" fill="white" />
        </clipPath>
    </defs>
</svg>