<svg width="64" height="68" viewBox="0 0 64 68" fill="none" xmlns="http://www.w3.org/2000/svg">
<path d="M2 42L17.72 32H46.28L62 42V60C62 61.5913 61.3679 63.1174 60.2426 64.2426C59.1174 65.3679 57.5913 66 56 66H8C6.4087 66 4.88258 65.3679 3.75736 64.2426C2.63214 63.1174 2 61.5913 2 60V42Z" fill="#D6C9FF" stroke="#3C2375" stroke-width="3" stroke-linecap="round" stroke-linejoin="round"/>
<path d="M62 42H44L38 51H26L20 42H2" stroke="#3C2375" stroke-width="3" stroke-linecap="round" stroke-linejoin="round"/>
<path d="M29.6695 37.6815L29.6673 37.6796C23.7151 32.3336 18.8961 27.9965 15.5475 23.9389C12.2151 19.9007 10.5 16.3257 10.5 12.5294C10.5 6.33387 15.3791 1.5 21.65 1.5C23.2234 1.5 24.9299 2.19286 26.577 3.3991C28.2124 4.5968 29.6768 6.22098 30.7383 7.87198L32 9.83432L33.2617 7.87198C34.3232 6.22098 35.7876 4.5968 37.423 3.3991C39.0701 2.19286 40.7766 1.5 42.35 1.5C48.6209 1.5 53.5 6.33387 53.5 12.5294C53.5 16.3257 51.7849 19.9007 48.4524 23.9389C45.1039 27.9965 40.2849 32.3336 34.3327 37.6796L34.3305 37.6815L32 39.7829L29.6695 37.6815Z" fill="#F0ABFC" stroke="#3C2375" stroke-width="3"/>
</svg>
