<svg width="150" height="120" viewBox="0 0 150 120" fill="none" xmlns="http://www.w3.org/2000/svg">
<path d="M22.375 0H126.792C132.726 0 138.417 2.35736 142.613 6.55349C146.809 10.7496 149.167 16.4408 149.167 22.375V52.2083H96.9583V47.75C96.9583 46.0931 95.6152 44.75 93.9583 44.75H55.2083C53.5515 44.75 52.2083 46.0931 52.2083 47.75V52.2083H0V22.375C0 16.4408 2.35736 10.7496 6.55349 6.55349C10.7496 2.35736 16.4408 0 22.375 0Z" fill="#8B5CF6"/>
<path d="M0 59.6666H52.2083V66.2965C52.2083 66.827 52.419 67.3357 52.7941 67.7107L66.5392 81.4558C66.9143 81.8309 67.423 82.0416 67.9534 82.0416H81.2132C81.7437 82.0416 82.2524 81.8309 82.6275 81.4558L96.3726 67.7107C96.7476 67.3357 96.9583 66.827 96.9583 66.2965V59.6666H149.167V113.333C149.167 116.647 146.48 119.333 143.167 119.333H6C2.68629 119.333 0 116.647 0 113.333V59.6666Z" fill="#A78BFA"/>
<path d="M74.5828 74.3607L72.6459 72.631C65.7664 66.5117 61.2246 62.4628 61.2246 57.5228C61.2246 53.4738 64.4573 50.3159 68.5716 50.3159C70.896 50.3159 73.247 52.3196 74.5828 54.3773C75.9186 52.3196 78.2697 50.3159 80.594 50.3159C84.7083 50.3159 87.941 53.4738 87.941 57.5228C87.941 62.4628 83.3992 66.5117 76.5198 72.631L74.5828 74.3607Z" fill="#F0ABFC"/>
<path d="M74.5834 74.3607V70.9844L74.5835 68.1269L74.583 59.5354L74.5834 54.3773C75.9192 52.3196 78.2703 50.3159 80.5946 50.3159C84.7089 50.3159 87.9416 53.4738 87.9416 57.5228C87.9416 62.4628 83.3998 66.5117 76.5204 72.631L74.5834 74.3607Z" fill="#E879F9"/>
</svg>
